<?xml version="1.0" encoding="UTF-8"?>
<svg version="1.1" xmlns="http://www.w3.org/2000/svg" width="512" height="512">
<path d="M0 0 C1.01790619 0.00215515 2.03581238 0.0043103 3.08456421 0.00653076 C17.69363523 0.05620146 32.02575853 0.30709809 46.375 3.3125 C47.34985352 3.51117676 48.32470703 3.70985352 49.32910156 3.91455078 C97.7109774 14.03517194 141.69928269 35.9516877 177.375 70.3125 C178.3640332 71.26068604 178.3640332 71.26068604 179.37304688 72.22802734 C188.86130305 81.37247479 197.6012044 90.66984009 205.375 101.3125 C206.23306152 102.46355017 207.09113451 103.61459177 207.94921875 104.765625 C213.98736829 112.95680614 219.34595521 121.47054105 224.375 130.3125 C224.73948242 130.94430176 225.10396484 131.57610352 225.47949219 132.22705078 C247.08534998 169.97532572 256.85198095 212.74189997 256.6875 255.9375 C256.68534485 256.95540619 256.6831897 257.97331238 256.68096924 259.02206421 C256.63129854 273.63113523 256.38040191 287.96325853 253.375 302.3125 C253.07698486 303.77478027 253.07698486 303.77478027 252.77294922 305.26660156 C242.65232806 353.6484774 220.7358123 397.63678269 186.375 433.3125 C185.74287598 433.97185547 185.11075195 434.63121094 184.45947266 435.31054688 C175.31502521 444.79880305 166.01765991 453.5387044 155.375 461.3125 C154.22394983 462.17056152 153.07290823 463.02863451 151.921875 463.88671875 C143.73224019 469.92427396 135.22961724 475.30707302 126.375 480.3125 C125.66778809 480.7146875 124.96057617 481.116875 124.23193359 481.53125 C101.09654164 494.5566741 75.92537591 503.30551461 49.9375 508.625 C49.21860596 508.77235596 48.49971191 508.91971191 47.7590332 509.0715332 C33.08339502 511.86090125 18.55831162 512.66142619 3.64770508 512.62817383 C0.70811513 512.6250221 -2.2304558 512.64854926 -5.16992188 512.67382812 C-18.54306192 512.71848737 -31.43916711 511.51301542 -44.625 509.3125 C-46.33055054 509.03031616 -46.33055054 509.03031616 -48.07055664 508.74243164 C-91.33802759 500.97044532 -132.38793216 480.98345309 -165.625 452.3125 C-166.37007813 451.67828125 -167.11515625 451.0440625 -167.8828125 450.390625 C-181.38779833 438.57948485 -194.05918743 425.82889772 -204.625 411.3125 C-205.48149066 410.16255169 -206.33826433 409.01281411 -207.1953125 407.86328125 C-213.23534209 399.67315742 -218.61867614 391.16870382 -223.625 382.3125 C-224.0271875 381.60528809 -224.429375 380.89807617 -224.84375 380.16943359 C-237.8691741 357.03404164 -246.61801461 331.86287591 -251.9375 305.875 C-252.08485596 305.15610596 -252.23221191 304.43721191 -252.3840332 303.6965332 C-255.35789088 288.05024391 -255.99800362 272.57681954 -255.9375 256.6875 C-255.93534485 255.66959381 -255.9331897 254.65168762 -255.93096924 253.60293579 C-255.88129854 238.99386477 -255.63040191 224.66174147 -252.625 210.3125 C-252.42632324 209.33764648 -252.22764648 208.36279297 -252.02294922 207.35839844 C-241.90232806 158.9765226 -219.9858123 114.98821731 -185.625 79.3125 C-184.99287598 78.65314453 -184.36075195 77.99378906 -183.70947266 77.31445312 C-174.56502521 67.82619695 -165.26765991 59.0862956 -154.625 51.3125 C-153.47394983 50.45443848 -152.32290823 49.59636549 -151.171875 48.73828125 C-142.98224019 42.70072604 -134.47961724 37.31792698 -125.625 32.3125 C-124.91778809 31.9103125 -124.21057617 31.508125 -123.48193359 31.09375 C-100.34654164 18.0683259 -75.17537591 9.31948539 -49.1875 4 C-48.46860596 3.85264404 -47.74971191 3.70528809 -47.0090332 3.5534668 C-31.36274391 0.57960912 -15.88931954 -0.06050362 0 0 Z " fill="#0092FF" transform="translate(255.625,-0.3125)"/>
<path d="M0 0 C4.42862024 3.63983165 9.47407445 8.27701567 10.109375 14.18359375 C9.75501552 18.24436183 8.16888031 21.03180039 6.1953125 24.49609375 C-4.54951013 44.78443967 -7.36965526 68.70262864 -7.4921875 91.37109375 C-7.50064697 92.8413501 -7.50064697 92.8413501 -7.50927734 94.34130859 C-7.42612162 102.52298665 -5.94277967 109.79890843 -3.1796875 117.49609375 C-0.5396875 117.49609375 2.1003125 117.49609375 4.8203125 117.49609375 C5.08328125 116.96886719 5.34625 116.44164062 5.6171875 115.8984375 C6.51108222 114.11355031 7.41966634 112.33600422 8.3359375 110.5625 C14.65581657 97.79463621 18.60207408 84.28347622 21.28198242 70.30419922 C21.8203125 68.49609375 21.8203125 68.49609375 23.8203125 66.49609375 C27.82525882 65.90076389 31.60656983 66.02243807 35.3828125 67.49609375 C38.16422179 71.36588058 36.91722222 76.85159509 36.24121094 81.34741211 C35.97873334 82.67852921 35.70789 84.00801785 35.4296875 85.3359375 C35.28380188 86.06116104 35.13791626 86.78638458 34.98760986 87.53358459 C34.67846904 89.06292161 34.36564937 90.59151919 34.04931641 92.11938477 C33.57827938 94.39510339 33.11815329 96.67279718 32.66015625 98.95117188 C29.66291592 113.75537641 26.55256043 128.41936221 21.5078125 142.68359375 C21.11537354 143.79927734 20.72293457 144.91496094 20.31860352 146.06445312 C14.52283231 162.22336005 8.0753307 177.67174218 -8.1796875 185.49609375 C-15.96352629 188.09070668 -25.37607198 187.39359762 -32.796875 183.96484375 C-47.46816147 174.92155898 -55.81365866 159.23748815 -60.375 143.05078125 C-63.54993499 129.025583 -65.29436004 114.66705995 -65.41796875 100.29296875 C-65.4277626 99.34484314 -65.43755646 98.39671753 -65.44764709 97.41986084 C-66.07784649 20.520633 -66.07784649 20.520633 -49.35546875 0.2890625 C-35.40539134 -11.73081552 -14.83570905 -9.96289248 0 0 Z " fill="#FDFEFF" transform="translate(270.1796875,201.50390625)"/>
<path d="M0 0 C8.21663343 4.84457419 13.46169463 11.7885932 16 21 C17.2454591 31.82893909 15.32779875 41.52820447 8.75 50.375 C0.18723828 58.54854527 -7.73079093 61.46530542 -19.53125 61.2421875 C-28.34453855 60.62684528 -34.69229795 57.15356648 -41 51 C-48.27246578 42.06481234 -49.98427866 33.19471541 -49.24267578 21.91650391 C-48.6614919 17.32667143 -46.61704446 13.72877046 -44 10 C-43.54238281 9.34515625 -43.08476562 8.6903125 -42.61328125 8.015625 C-32.38863793 -5.09432863 -14.38291291 -8.043406 0 0 Z " fill="#FCFEFF" transform="translate(282,128)"/>
</svg>
